# xmcd CD database file
#
# Track frame offsets:
#	150
#	16290
#	36485
#	50475
#	66032
#	86087
#	102727
#	115725
#	136195
#	153735
#	170390
#
# Disc length: 2629 seconds
#
# Revision: 1
# Processed by: cddbd v1.5.2PL0 Copyright (c) Steve Scherf et al.
# Submitted via: CDex 1.70beta2
#
DISCID=950a430b
DTITLE=SUGAR BABE - SONGS ['86MIX]
DYEAR=1986
DGENRE=Pop
TTITLE0=Show
TTITLE1=Down Town
TTITLE2=蜃気楼の街
TTITLE3=風の世界
TTITLE4=ためいきばかり
TTITLE5=いつも通り
TTITLE6=すてきなメロディー
TTITLE7=今日はなんだか
TTITLE8=雨は手のひらにいっぱい
TTITLE9=過ぎ去りし日々
TTITLE10=Suger
EXTD=YEAR: 1986
EXTT0=
EXTT1=
EXTT2=
EXTT3=
EXTT4=
EXTT5=
EXTT6=
EXTT7=
EXTT8=
EXTT9=
EXTT10=
PLAYORDER=
